<mxfile host="app.diagrams.net" modified="2023-09-01T14:25:50.632Z" agent="Mozilla/5.0 (X11; Linux x86_64) AppleWebKit/537.36 (KHTML, like Gecko) Chrome/107.0.0.0 Safari/537.36" etag="ZRyXpfPO6zaW5GngAwF2" version="21.7.2" type="github">
  <diagram name="PÃ¡gina-1" id="xAlrwf3IHT5e0tvSVj4u">
    <mxGraphModel dx="1195" dy="696" grid="1" gridSize="10" guides="1" tooltips="1" connect="1" arrows="1" fold="1" page="1" pageScale="1" pageWidth="827" pageHeight="1169" math="0" shadow="0">
      <root>
        <mxCell id="0" />
        <mxCell id="1" parent="0" />
        <mxCell id="PyamZCQgxZWp0LG9gMf--1" value="Cliente" style="shape=umlActor;verticalLabelPosition=bottom;verticalAlign=top;html=1;outlineConnect=0;" vertex="1" parent="1">
          <mxGeometry x="40" y="80" width="40" height="70" as="geometry" />
        </mxCell>
        <mxCell id="PyamZCQgxZWp0LG9gMf--3" value="Tela:Login" style="rounded=0;whiteSpace=wrap;html=1;fillColor=#f8cecc;strokeColor=#b85450;" vertex="1" parent="1">
          <mxGeometry x="175" y="110" width="120" height="30" as="geometry" />
        </mxCell>
        <mxCell id="PyamZCQgxZWp0LG9gMf--11" style="edgeStyle=orthogonalEdgeStyle;rounded=0;orthogonalLoop=1;jettySize=auto;html=1;entryX=0.129;entryY=0.02;entryDx=0;entryDy=0;entryPerimeter=0;" edge="1" parent="1" source="PyamZCQgxZWp0LG9gMf--4" target="PyamZCQgxZWp0LG9gMf--10">
          <mxGeometry relative="1" as="geometry">
            <Array as="points">
              <mxPoint x="110" y="234" />
              <mxPoint x="110" y="234" />
            </Array>
          </mxGeometry>
        </mxCell>
        <mxCell id="PyamZCQgxZWp0LG9gMf--4" value="" style="rounded=0;whiteSpace=wrap;html=1;" vertex="1" parent="1">
          <mxGeometry x="55" y="230" width="10" height="190" as="geometry" />
        </mxCell>
        <mxCell id="PyamZCQgxZWp0LG9gMf--9" value="" style="endArrow=none;dashed=1;html=1;rounded=0;exitX=0.5;exitY=0;exitDx=0;exitDy=0;dashPattern=8 8;" edge="1" parent="1" source="PyamZCQgxZWp0LG9gMf--4">
          <mxGeometry width="50" height="50" relative="1" as="geometry">
            <mxPoint x="15" y="230" as="sourcePoint" />
            <mxPoint x="60" y="170" as="targetPoint" />
          </mxGeometry>
        </mxCell>
        <mxCell id="PyamZCQgxZWp0LG9gMf--25" style="edgeStyle=orthogonalEdgeStyle;rounded=0;orthogonalLoop=1;jettySize=auto;html=1;entryX=-0.02;entryY=0.103;entryDx=0;entryDy=0;entryPerimeter=0;" edge="1" parent="1" source="PyamZCQgxZWp0LG9gMf--10" target="PyamZCQgxZWp0LG9gMf--19">
          <mxGeometry relative="1" as="geometry">
            <Array as="points">
              <mxPoint x="338" y="250" />
            </Array>
          </mxGeometry>
        </mxCell>
        <mxCell id="PyamZCQgxZWp0LG9gMf--10" value="" style="rounded=0;whiteSpace=wrap;html=1;" vertex="1" parent="1">
          <mxGeometry x="230" y="230" width="10" height="190" as="geometry" />
        </mxCell>
        <mxCell id="PyamZCQgxZWp0LG9gMf--12" value="" style="endArrow=none;dashed=1;html=1;rounded=0;exitX=0.5;exitY=0;exitDx=0;exitDy=0;dashPattern=8 8;" edge="1" parent="1" source="PyamZCQgxZWp0LG9gMf--10" target="PyamZCQgxZWp0LG9gMf--3">
          <mxGeometry width="50" height="50" relative="1" as="geometry">
            <mxPoint x="234.71" y="200" as="sourcePoint" />
            <mxPoint x="234.71" y="140" as="targetPoint" />
          </mxGeometry>
        </mxCell>
        <mxCell id="PyamZCQgxZWp0LG9gMf--14" value="Banco MySQL" style="rounded=0;whiteSpace=wrap;html=1;fillColor=#f8cecc;strokeColor=#b85450;" vertex="1" parent="1">
          <mxGeometry x="590" y="110" width="120" height="30" as="geometry" />
        </mxCell>
        <mxCell id="PyamZCQgxZWp0LG9gMf--15" value="" style="endArrow=none;dashed=1;html=1;rounded=0;exitX=0.5;exitY=0;exitDx=0;exitDy=0;dashPattern=8 8;" edge="1" parent="1" target="PyamZCQgxZWp0LG9gMf--14">
          <mxGeometry width="50" height="50" relative="1" as="geometry">
            <mxPoint x="650" y="230" as="sourcePoint" />
            <mxPoint x="649.71" y="140" as="targetPoint" />
          </mxGeometry>
        </mxCell>
        <mxCell id="PyamZCQgxZWp0LG9gMf--16" value="PHP" style="rounded=0;whiteSpace=wrap;html=1;fillColor=#f8cecc;strokeColor=#b85450;" vertex="1" parent="1">
          <mxGeometry x="380" y="110" width="120" height="30" as="geometry" />
        </mxCell>
        <mxCell id="PyamZCQgxZWp0LG9gMf--17" value="" style="endArrow=none;dashed=1;html=1;rounded=0;exitX=0.5;exitY=0;exitDx=0;exitDy=0;dashPattern=8 8;" edge="1" parent="1" target="PyamZCQgxZWp0LG9gMf--16">
          <mxGeometry width="50" height="50" relative="1" as="geometry">
            <mxPoint x="440" y="230" as="sourcePoint" />
            <mxPoint x="439.71000000000004" y="140" as="targetPoint" />
          </mxGeometry>
        </mxCell>
        <mxCell id="PyamZCQgxZWp0LG9gMf--19" value="" style="rounded=0;whiteSpace=wrap;html=1;" vertex="1" parent="1">
          <mxGeometry x="435" y="230" width="10" height="190" as="geometry" />
        </mxCell>
        <mxCell id="PyamZCQgxZWp0LG9gMf--20" style="edgeStyle=orthogonalEdgeStyle;rounded=0;orthogonalLoop=1;jettySize=auto;html=1;entryX=0.129;entryY=0.02;entryDx=0;entryDy=0;entryPerimeter=0;exitX=1;exitY=0.25;exitDx=0;exitDy=0;" edge="1" parent="1" source="PyamZCQgxZWp0LG9gMf--19">
          <mxGeometry relative="1" as="geometry">
            <mxPoint x="478.71" y="270.2" as="sourcePoint" />
            <Array as="points">
              <mxPoint x="445" y="270" />
            </Array>
            <mxPoint x="645" y="270.00000000000006" as="targetPoint" />
          </mxGeometry>
        </mxCell>
        <mxCell id="PyamZCQgxZWp0LG9gMf--24" style="edgeStyle=orthogonalEdgeStyle;rounded=0;orthogonalLoop=1;jettySize=auto;html=1;entryX=1.167;entryY=0.819;entryDx=0;entryDy=0;entryPerimeter=0;" edge="1" parent="1" source="PyamZCQgxZWp0LG9gMf--21" target="PyamZCQgxZWp0LG9gMf--10">
          <mxGeometry relative="1" as="geometry">
            <Array as="points">
              <mxPoint x="540" y="386" />
              <mxPoint x="540" y="386" />
            </Array>
          </mxGeometry>
        </mxCell>
        <mxCell id="PyamZCQgxZWp0LG9gMf--21" value="" style="rounded=0;whiteSpace=wrap;html=1;" vertex="1" parent="1">
          <mxGeometry x="645" y="230" width="10" height="190" as="geometry" />
        </mxCell>
      </root>
    </mxGraphModel>
  </diagram>
</mxfile>
